#!OML:ASF E:/inclinewalkrobotboard/Project1/Captureday1/Session1/subject1.ASF
:FULLY-SPECIFIED
:DEGREES
101
root 0 0 0 16.058914471133896 42.07543902121206 -0.6628239469398132
lowerback -10.95492261408786 -4.50954283607355 -4.483794287881562
upperback -11.764345485894678 -5.607456944111279 8.941517799807649
thorax -5.420273880018769 -2.1186552369272347 12.182599588597164
lowerneck -3.0039081912133474 -9.82119483571115 -8.481200624118479
upperneck 32.77218929733414 -12.325235107376452 0.20631924147186353
head 11.904958380639176 -6.378350639357609 -0.1312209917789322
rclavicle -4.3508537453266336E-15 3.918620470068917E-15
rhumerus 163.417085160587 5.817363724950592 -193.7689629282343
rradius 17.822092871712087
rwrist 81.30586704208474
rhand -17.126736304017165 7.948809513295925
rfingers 7.12502000000001
rthumb 9.072890669082927 -21.941725537849702
lclavicle 1.5911467707064469E-15 -5.347584625372907E-15
lhumerus 84.93034343437427 32.37617976941176 16.695323931591407
lradius 51.170761201786874
lwrist -16.915016959664037
lhand -7.462959449441231 11.445738741682517
lfingers 7.125019999999991
lthumb 18.381097703464896 40.221849077338284
rfemur 159.08614519916344 -214.46629721182344 -185.9456582902865
rtibia 63.77333162855383
rfoot -52.23839571048255 -24.612411961164316
rtoes 60.0974733036478
lfemur -88.55745668944361 22.78322477974872 -52.022648424690615
ltibia 75.56468840878907
lfoot -16.252225497613885 32.87693476736977
ltoes 10.561517814087715
102
root 0 0 0 16.056816648525995 42.110972839875544 -0.66481965598968
lowerback -10.9483130241458 -4.507457116960953 -4.481214045910635
upperback -11.761283904393158 -5.604174016805209 8.940779567979378
thorax -5.420471710850448 -2.1171111651571257 12.179940220100349
lowerneck -3.003574591106714 -9.822240699939998 -8.479414885085518
upperneck 32.77469535316255 -12.325248016769416 0.1980880631072326
head 11.905581304422872 -6.37888537529418 -0.1340418729262387
rclavicle -4.422633910038726E-15 3.926518914325592E-15
rhumerus 163.30331275801814 5.783478894430139 -193.83156922366777
rradius 17.638993877742756
rwrist 81.65135591528083
rhand -17.127346827479542 7.932802338442799
rfingers 7.125020000000011
rthumb 9.070841139671021 -21.96149212110269
lclavicle 1.5759943546046125E-15 -5.268163587581333E-15
lhumerus 85.01410501529158 32.411451310050964 16.644282911498955
lradius 51.02974432578105
lwrist -16.987916122621588
lhand -7.589655435865628 11.503670227849122
lfingers 7.12501999999999
lthumb 18.25958718528135 40.29912229579377
rfemur 158.8489365127437 -214.2633078006541 -185.8248110616844
rtibia 63.57904679224812
rfoot -52.485634911365956 -24.538802618229845
rtoes 60.29330117444975
lfemur -88.57587143051012 22.788052358298607 -51.942515720627924
ltibia 75.655040318152
lfoot -16.38958014990647 32.838989656734
ltoes 10.608785926163163
103
root 0 0 0 16.048994971583408 42.13381563773791 -0.6613945701392812
lowerback -10.940467528443875 -4.50574837331961 -4.480824038017242
upperback -11.757288172736391 -5.601502773269346 8.938882804222528
thorax -5.420708868713419 -2.11561104634253 12.177296310309512
lowerneck -3.0040256896776345 -9.82246294032605 -8.47697064012261
upperneck 32.776300190458855 -12.324477165772796 0.19117103806240587
head 11.90590506288333 -6.378928924095238 -0.13643366047769034
rclavicle -4.44334986707569E-15 3.928558275014259E-15
rhumerus 163.21717864847932 5.766012458532792 -193.89620598242522
rradius 17.496904582289595
rwrist 81.90551449658977
rhand -17.12501484262725 7.91828932218705
rfingers 7.125020000000011
rthumb 9.07218755693642 -21.978348499601132
lclavicle 1.5872130936056233E-15 -5.1957225251739765E-15
lhumerus 85.07780814645992 32.45706944994431 16.61591816938928
lradius 50.89491005479623
lwrist -17.05638984435457
lhand -7.7049366941517246 11.555026682008808
lfingers 7.1250199999999895
lthumb 18.14896190523903 40.36881452194792
rfemur 158.6300754620874 -214.07769988106782 -185.72078197970183
rtibia 63.366612705557785
rfoot -52.772589954088645 -24.478395343537883
rtoes 60.46082057084244
lfemur -88.58722020251714 22.793362767529246 -51.89681546706632
ltibia 75.70801719937741
lfoot -16.445088018444988 32.81423570800922
ltoes 10.6352497301205
104
root 0 0 0 16.040185580763097 42.14730952453864 -0.6564803409039683
lowerback -10.93346758346227 -4.504528260687334 -4.4811427124208665
upperback -11.753806943348318 -5.59954302679973 8.936933289164475
thorax -5.42114043953797 -2.11437175505774 12.175063088905159
lowerneck -3.0044425965885395 -9.82227538070854 -8.474586931675868
upperneck 32.77774463741693 -12.323481399050502 0.18594050608549884
head 11.906192015271136 -6.378750636658986 -0.13826924417939557
rclavicle -4.460844120820441E-15 3.92559351364438E-15
rhumerus 163.12263528257438 5.755984299109425 -193.95229733170865
rradius 17.37522998145115
rwrist 82.11437814947473
rhand -17.122536429448317 7.907798690200245
rfingers 7.125020000000011
rthumb 9.073892476282294 -21.990498879060063
lclavicle 1.5960106890995892E-15 -5.1419993891283604E-15
lhumerus 85.12596280358719 32.496711292751 16.58710590425153
lradius 50.774827005408866
lwrist -17.11883841717455
lhand -7.800128305531658 11.601936914830574
lfingers 7.1250199999999895
lthumb 18.057579755797775 40.43104822524177
rfemur 158.4232731562251 -213.90086301344826 -185.6175636677667
rtibia 63.15424879614635
rfoot -53.0842220104159 -24.403676761367546
rtoes 60.59942888218404
lfemur -88.59907849598426 22.798500555267996 -51.87452901957062
ltibia 75.74013169802404
lfoot -16.43758579458365 32.79636542827967
ltoes 10.641406777894797
105
root 0 0 0 16.006918749746774 42.184773761551085 -0.6355251614804214
lowerback -10.912154201362863 -4.502118275231544 -4.485318566464959
upperback -11.74278111241888 -5.595579275106951 8.931146083199504
thorax -5.422169526941099 -2.1113823074285456 12.170400423433698
lowerneck -3.005371342988961 -9.821311569994464 -8.468023984932897
upperneck 32.78035406309808 -12.320014099704725 0.172063820808392
head 11.906321282205557 -6.377929979372207 -0.14310996164131096
rclavicle -4.521459706123584E-15 3.8975212375453276E-15
rhumerus 163.0020720048328 5.719047172027292 -194.0395411019695
rradius 17.151371054871124
rwrist 82.5137550022908
rhand -17.11996766851663 7.8827658628746855
rfingers 7.125020000000012
rthumb 9.075253557330162 -22.01990816022817
lclavicle 1.5276804872658542E-15 -5.0502372684056146E-15
lhumerus 85.32330096403713 32.65652211454626 16.597804568828796
lradius 50.47368981357489
lwrist -17.229224500706962
lhand -8.004572372528285 11.692542946333264
lfingers 7.125019999999988
lthumb 17.86116075203503 40.557507544738534
rfemur 158.01825387137222 -213.54310719843122 -185.42018538883568
rtibia 62.78370712985664
rfoot -53.532775457685055 -24.349126705405475
rtoes 60.8995784019733
lfemur -88.57040059117543 22.79534676576798 -51.88660026477111
ltibia 75.7834106278085
lfoot -16.26658338796917 32.73752797645819
ltoes 10.543868322138739
106
root 0 0 0 15.979103134425827 42.21889422186207 -0.6237482651510025
lowerback -10.897579638875703 -4.503244669845044 -4.486073598352377
upperback -11.735766494861966 -5.596580060002221 8.930518031354293
thorax -5.422934890091458 -2.1114954656364704 12.169852081861436
lowerneck -3.0039351759497013 -9.82183350430773 -8.46667453503057
upperneck 32.7822190257815 -12.3190776208297 0.16556857761085553
head 11.906567996251606 -6.378077291033476 -0.14539722652867226
rclavicle -4.5539247547602056E-15 3.932869676521855E-15
rhumerus 162.89573309781343 5.731167256348261 -194.07673497982682
rradius 17.08224918916909
rwrist 82.64094179324584
rhand -17.11892561927636 7.8856604156015555
rfingers 7.125020000000012
rthumb 9.075633148366713 -22.016943700241143
lclavicle 1.576070244880689E-15 -4.9689176439850404E-15
lhumerus 85.27490005646652 32.64222359198652 16.571147683149924
lradius 50.404536976633466
lwrist -17.278942924182644
lhand -8.079896289928971 11.723505429550755
lfingers 7.125019999999988
lthumb 17.788848657821845 40.59856778920042
rfemur 157.92172678812435 -213.4635785829507 -185.35237231705193
rtibia 62.66135143602144
rfoot -53.815834018207866 -24.2120119669907
rtoes 60.909836085898704
lfemur -88.59914588106687 22.785279028534568 -51.92093175412404
ltibia 75.7919011857391
lfoot -16.162915421518345 32.74289601748342
ltoes 10.513600198840585
107
root 0 0 0 15.95173380057018 42.24059300153708 -0.6100753398404422
lowerback -10.883803749912651 -4.504047921493003 -4.488090019751204
upperback -11.72888351440743 -5.597267290295823 8.928834970071412
thorax -5.423644507031236 -2.1113208082611195 12.168886994338521
lowerneck -3.003476801780165 -9.821720515579868 -8.46475954881101
upperneck 32.78308283571552 -12.317676658835078 0.16024733115780165
head 11.90651987738 -6.3778642477804475 -0.1472891185462888
rclavicle -4.544984450912517E-15 3.958067067410115E-15
rhumerus 162.81628499604966 5.755101078312201 -194.12910306497568
rradius 17.034017996621877
rwrist 82.71702191265989
rhand -17.11731458353859 7.888167960589891
rfingers 7.125020000000012
rthumb 9.076977976606205 -22.013892966165443
lclavicle 1.6344723052636648E-15 -4.89981563652047E-15
lhumerus 85.2437296608436 32.64740457882576 16.559946364795046
lradius 50.33593758434212
lwrist -17.32299687980459
lhand -8.143869342132335 11.751520438180178
lfingers 7.125019999999988
lthumb 17.727399471711557 40.636061261519245
rfemur 157.8236845653887 -213.38358164939748 -185.2956094099467
rtibia 62.51157739506063
rfoot -54.12752986755798 -24.100729686015274
rtoes 60.924036071132235
lfemur -88.62043118748227 22.78177523706821 -51.96140866222146
ltibia 75.78541559431491
lfoot -16.020993369805396 32.74756105725313
ltoes 10.476032297877463
108
root 0 0 0 15.928829170422244 42.25198250286972 -0.5978986760273486
lowerback -10.872800237619817 -4.5047509373967305 -4.490080535717187
upperback -11.723486574553066 -5.597897049265886 8.927156768599415
thorax -5.42443990613465 -2.1111317759695094 12.167970696991354
lowerneck -3.0032296269992313 -9.821317517268517 -8.462976728997678
upperneck 32.783679747288474 -12.316310221657545 0.15665258196398613
head 11.906446828320195 -6.377519696906773 -0.14859937624882158
rclavicle -4.538654501545134E-15 3.97496551497655E-15
rhumerus 162.72792916257438 5.781129692403169 -194.18156175914027
rradius 16.988564722247013
rwrist 82.78119453751505
rhand -17.116442908784006 7.8922033079667875
rfingers 7.125020000000012
rthumb 9.07770307651454 -22.009288679063502
lclavicle 1.6782331099140535E-15 -4.8512972084249945E-15
lhumerus 85.22379294335016 32.65477147660939 16.54335258274256
lradius 50.275349497268806
lwrist -17.361584078528804
lhand -8.190764117273051 11.778549750036209
lfingers 7.125019999999988
lthumb 17.68234205475922 40.67032014582503
rfemur 157.71970212259959 -213.29608318496156 -185.2340076294198
rtibia 62.35381974208487
rfoot -54.45252114597704 -23.98625065626433
rtoes 60.93771483336981
lfemur -88.64127895457835 22.78181215164864 -52.00278245783251
ltibia 75.77412155948814
lfoot -15.858128584318603 32.74993686920079
ltoes 10.43187300627649
